<svg width="3000" height="3000" viewBox="0 0 3000 3000" fill="none" xmlns="http://www.w3.org/2000/svg">
<path d="M1739.61 274.39H1488.09H1231.01L494.43 734.86L580.29 1762.57C676.74 2535.55 1352.12 2698.43 1488.09 2723.51L1500 2725.6L1511.91 2723.51C1647.88 2698.43 2323.26 2535.55 2419.71 1762.57L2505.57 734.86L1739.61 274.39Z" fill="#090043"/>
<mask id="mask0_36_236" style="mask-type:alpha" maskUnits="userSpaceOnUse" x="494" y="274" width="2012" height="2452">
<path d="M1739.61 274.39H1488.09H1231.01L494.43 734.86L580.29 1762.57C676.74 2535.55 1352.12 2698.43 1488.09 2723.51L1500 2725.6L1511.91 2723.51C1647.88 2698.43 2323.26 2535.55 2419.71 1762.57L2505.57 734.86L1739.61 274.39Z" fill="black"/>
</mask>
<g mask="url(#mask0_36_236)">
<path d="M1717.86 359.57H1491.02H1276.89L594.869 788.04L672.309 1744.33C749.909 2389 1368.4 2615.15 1491.03 2638.49L1501.77 2640.44L1512.51 2638.49C1635.14 2615.15 2269.57 2379.81 2331.23 1744.33L2408.67 788.04L1717.87 359.57H1717.86Z" stroke="white" stroke-width="10" stroke-miterlimit="10"/>
<path d="M1717.86 359.57H1491.02H1276.89L594.869 788.04L672.309 1744.33C749.909 2389 1368.4 2615.15 1491.03 2638.49L1501.77 2640.44L1512.51 2638.49C1635.14 2615.15 2269.57 2379.81 2331.23 1744.33L2408.67 788.04L1717.87 359.57H1717.86Z" stroke="#2C5CB9" stroke-width="10" stroke-miterlimit="10"/>
<path d="M2139.54 933.63C2134.22 879.53 2119.35 806.64 2026.73 736.71C1944.83 674.88 1842.59 669.63 1817.51 668.18C1760.07 664.87 1729.3 670.12 1729.3 670.12C1728.73 666.13 1752.09 656.79 1782.76 651.17C1820.68 644.21 1834.36 643.68 1890.65 637.56C1957.78 630.26 1997.57 628.81 1997.57 628.81C1997.4 624.77 1907.22 621.49 1810.95 630.27C1721.55 638.42 1654 654.51 1628.7 660.89C1567.05 676.43 1510.51 702.51 1374.61 761.61C1185.96 843.65 1112.87 888.69 1115.65 886.43C1119.54 883.27 1126.6 875.81 1131.44 868.85C1145.21 849.09 1161.01 819.66 1179.88 796.6C1197.38 775.22 1212.39 754.52 1248.24 721.51C1284.93 687.73 1341.79 661.73 1341.79 661.73C1340.66 660.27 1295.46 675.09 1276.67 685.3C1249.92 699.83 1235.15 709.59 1223.38 718.14C1196.49 737.67 1175.82 757.82 1164.65 769.38C1138.08 796.88 1123.82 813.06 1103.41 843.58C1086.08 869.5 1064.37 887 1055.89 893.62C1055.89 893.62 1076.07 870.9 1093.21 841.07C1111.37 809.46 1147.48 744.76 1171.94 713.5C1198.18 679.97 1242.65 620.92 1349.81 566.24C1375.95 552.91 1426.52 530.6 1438.02 526.87C1442.73 525.34 1282.74 553.84 1146.42 678.5C1121.92 700.9 1103.9 723.46 1061.13 787.85C1039.4 820.56 1028.55 841.62 1003.53 869.71C983.36 892.35 975.38 901.71 919.71 914.7C905.13 918.1 909.04 951 861.39 966.46C825.43 978.12 757.34 999.09 744.02 1035.71C730.41 1073.13 730.32 1145.89 779.16 1125.48C779.16 1125.48 822.52 1108.51 878.77 1101.41C935.67 1094.24 968.4 1103.21 984.18 1108.61C1002.71 1114.96 1012.93 1117.88 1026.35 1132.19C1036.07 1142.56 1038.19 1157.23 1036.07 1161.03C1043.85 1147.1 1047.1 1138.99 1045.79 1130.9C1043.52 1116.92 1034.97 1110.95 1028.62 1105.63C1021.87 1099.98 1006.54 1092.09 1006.54 1092.09C1044.93 1084.8 1090.15 1074.05 1180.69 1044.46C1229.29 1028.57 1265.74 1009.95 1313.37 989.06C1397.02 952.36 1428.86 950.58 1462.08 954.07C1508.2 958.91 1534.2 976.02 1534.2 976.02C1535.87 972.42 1509.87 951.84 1487.94 942.61C1470 935.06 1438.36 925.51 1365.37 945.81C1294.83 965.42 1252.13 968.65 1252.13 968.65C1250.78 965.45 1337.42 914.17 1464.33 861.73C1622.88 796.22 1654.67 791.03 1681.18 785.8C1751.87 771.84 1826.48 771.21 1900.85 805.24C1988.43 845.32 2005.95 908.1 2003.94 972.52C2003.23 995.33 2003.4 1032.61 1953.4 1091.1C1910.96 1140.74 1853.21 1174.31 1764.29 1210V992.61C1764.9 985.49 1767 974.86 1773.83 968.87C1778.12 965.1 1786.87 964.21 1792.22 964.03H1800.15C1810.42 964.03 1818.74 955.7 1818.74 945.44C1818.74 935.18 1810.41 926.85 1800.15 926.85H1609.74C1599.47 926.85 1591.15 935.18 1591.15 945.44C1591.15 955.7 1599.48 964.03 1609.74 964.03H1617.67C1623.02 964.21 1631.78 965.1 1636.06 968.87C1646.97 978.46 1645.39 999.88 1645.39 999.88C1645.45 999.88 1645.52 999.85 1645.59 999.83V1253.63C1635.72 1257.06 1625.58 1260.55 1615.15 1264.12C1483.78 1309.11 1420.31 1327.38 1360.77 1349.56V1210.04C1361.38 1202.92 1363.48 1192.29 1370.31 1186.3C1374.6 1182.53 1383.35 1181.64 1388.7 1181.46H1396.63C1406.9 1181.46 1415.22 1173.13 1415.22 1162.87C1415.22 1152.61 1406.89 1144.28 1396.63 1144.28H1206.22C1195.95 1144.28 1187.63 1152.61 1187.63 1162.87C1187.63 1173.13 1195.96 1181.46 1206.22 1181.46H1214.15C1219.5 1181.64 1228.25 1182.53 1232.54 1186.3C1243.45 1195.89 1241.87 1217.31 1241.87 1217.31C1241.93 1217.31 1242 1217.28 1242.07 1217.26V1400.49C1235.24 1403.59 1228.63 1406.61 1222.23 1409.58C1174.3 1427.34 1140.26 1441.01 1082.14 1467.96C1046.49 1485.37 995.12 1515.19 960.44 1550.16C936.79 1574.01 897.75 1615.77 861.3 1749.18C877.06 1718.74 895.42 1696.46 919.82 1681.8C931.64 1674.7 944.27 1669.15 957.56 1665.19C949.33 1683.35 941.6 1702.99 934.6 1724.23C875.76 1902.82 941.57 2051.21 983.44 2119.19C1068.24 2256.87 1183.22 2317.31 1318.16 2366.38C1399.98 2396.13 1577.15 2402.26 1712.37 2333.65C1826.17 2275.91 1884.95 2215.09 1923.61 2180.43C1954.96 2152.32 2027.74 2052.5 2027.74 2052.5C2027.74 2052.5 1804.36 2266.47 1563.65 2266.47C1438.81 2266.47 1359.15 2247.49 1262.99 2199.53C1253.77 2194.93 1231.08 2183.2 1203.7 2164.17C1211.07 2164.44 1218.84 2164.65 1227.07 2164.78C1294.49 2165.88 1377.48 2118.68 1377.48 2118.68C1308.62 2144.9 1161.89 2117.33 1093.82 2039.28C1046.9 1985.48 1043.91 1900.47 1047.2 1849.45C1055.57 1770.51 1088.12 1714.02 1101.79 1693.11C1143.64 1629.12 1191.59 1591.3 1242.08 1558.63V1878.52C1242.01 1878.5 1241.94 1878.47 1241.88 1878.47C1241.88 1878.47 1243.46 1899.9 1232.55 1909.48C1228.26 1913.25 1219.51 1914.14 1214.16 1914.32H1206.23C1195.96 1914.32 1187.64 1922.65 1187.64 1932.91C1187.64 1943.17 1195.97 1951.5 1206.23 1951.5H1396.64C1406.91 1951.5 1415.23 1943.17 1415.23 1932.91C1415.23 1922.65 1406.9 1914.32 1396.64 1914.32H1388.71C1383.36 1914.14 1374.61 1913.25 1370.32 1909.48C1363.49 1903.48 1361.4 1892.86 1360.78 1885.74V1491.84C1434.96 1458.05 1523.57 1430.18 1641.47 1387.77C1642.86 1387.27 1644.22 1386.78 1645.6 1386.29V2003.29C1645.53 2003.27 1645.46 2003.24 1645.4 2003.24C1645.4 2003.24 1646.98 2024.67 1636.07 2034.25C1631.78 2038.02 1623.03 2038.91 1617.68 2039.09H1609.75C1599.48 2039.09 1591.16 2047.42 1591.16 2057.68C1591.16 2067.94 1599.49 2076.27 1609.75 2076.27H1800.16C1810.43 2076.27 1818.75 2067.94 1818.75 2057.68C1818.75 2047.42 1810.42 2039.09 1800.16 2039.09H1792.23C1786.88 2038.91 1778.13 2038.02 1773.84 2034.25C1767.01 2028.25 1764.92 2017.63 1764.3 2010.51V1345.55C1822.52 1325.65 1867.38 1308.41 1931.06 1271.86C2004.81 1229.54 2032.44 1201.96 2044.78 1188.75C2068.29 1163.61 2151.8 1058.31 2139.55 933.6L2139.54 933.63Z" fill="white"/>
<g filter="url(#filter0_d_36_236)">
<path d="M2139.54 933.63C2134.22 879.53 2119.35 806.64 2026.73 736.71C1944.83 674.88 1842.59 669.63 1817.51 668.18C1760.07 664.87 1729.3 670.12 1729.3 670.12C1728.73 666.13 1752.09 656.79 1782.76 651.17C1820.68 644.21 1834.36 643.68 1890.65 637.56C1957.78 630.26 1997.57 628.81 1997.57 628.81C1997.4 624.77 1907.22 621.49 1810.95 630.27C1721.55 638.42 1654 654.51 1628.7 660.89C1567.05 676.43 1510.51 702.51 1374.61 761.61C1185.96 843.65 1112.87 888.69 1115.65 886.43C1119.54 883.27 1126.6 875.81 1131.44 868.85C1145.21 849.09 1161.01 819.66 1179.88 796.6C1197.38 775.22 1212.39 754.52 1248.24 721.51C1284.93 687.73 1341.79 661.73 1341.79 661.73C1340.66 660.27 1295.46 675.09 1276.67 685.3C1249.92 699.83 1235.15 709.59 1223.38 718.14C1196.49 737.67 1175.82 757.82 1164.65 769.38C1138.08 796.88 1123.82 813.06 1103.41 843.58C1086.08 869.5 1064.37 887 1055.89 893.62C1055.89 893.62 1076.07 870.9 1093.21 841.07C1111.37 809.46 1147.48 744.76 1171.94 713.5C1198.18 679.97 1242.65 620.92 1349.81 566.24C1375.95 552.91 1426.52 530.6 1438.02 526.87C1442.73 525.34 1282.74 553.84 1146.42 678.5C1121.92 700.9 1103.9 723.46 1061.13 787.85C1039.4 820.56 1028.55 841.62 1003.53 869.71C983.36 892.35 975.38 901.71 919.71 914.7C905.13 918.1 909.04 951 861.39 966.46C825.43 978.12 757.34 999.09 744.02 1035.71C730.41 1073.13 730.32 1145.89 779.16 1125.48C779.16 1125.48 822.52 1108.51 878.77 1101.41C935.67 1094.24 968.4 1103.21 984.18 1108.61C1002.71 1114.96 1012.93 1117.88 1026.35 1132.19C1036.07 1142.56 1038.19 1157.23 1036.07 1161.03C1043.85 1147.1 1047.1 1138.99 1045.79 1130.9C1043.52 1116.92 1034.97 1110.95 1028.62 1105.63C1021.87 1099.98 1006.54 1092.09 1006.54 1092.09C1044.93 1084.8 1090.15 1074.05 1180.69 1044.46C1229.29 1028.57 1265.74 1009.95 1313.37 989.06C1397.02 952.36 1428.86 950.58 1462.08 954.07C1508.2 958.91 1534.2 976.02 1534.2 976.02C1535.87 972.42 1509.87 951.84 1487.94 942.61C1470 935.06 1438.36 925.51 1365.37 945.81C1294.83 965.42 1252.13 968.65 1252.13 968.65C1250.78 965.45 1337.42 914.17 1464.33 861.73C1622.88 796.22 1654.67 791.03 1681.18 785.8C1751.87 771.84 1826.48 771.21 1900.85 805.24C1988.43 845.32 2005.95 908.1 2003.94 972.52C2003.23 995.33 2003.4 1032.61 1953.4 1091.1C1910.96 1140.74 1853.21 1174.31 1764.29 1210V992.61C1764.9 985.49 1767 974.86 1773.83 968.87C1778.12 965.1 1786.87 964.21 1792.22 964.03H1800.15C1810.42 964.03 1818.74 955.7 1818.74 945.44C1818.74 935.18 1810.41 926.85 1800.15 926.85H1609.74C1599.47 926.85 1591.15 935.18 1591.15 945.44C1591.15 955.7 1599.48 964.03 1609.74 964.03H1617.67C1623.02 964.21 1631.78 965.1 1636.06 968.87C1646.97 978.46 1645.39 999.88 1645.39 999.88C1645.45 999.88 1645.52 999.85 1645.59 999.83V1253.63C1635.72 1257.06 1625.58 1260.55 1615.15 1264.12C1483.78 1309.11 1420.31 1327.38 1360.77 1349.56V1210.04C1361.38 1202.92 1363.48 1192.29 1370.31 1186.3C1374.6 1182.53 1383.35 1181.64 1388.7 1181.46H1396.63C1406.9 1181.46 1415.22 1173.13 1415.22 1162.87C1415.22 1152.61 1406.89 1144.28 1396.63 1144.28H1206.22C1195.95 1144.28 1187.63 1152.61 1187.63 1162.87C1187.63 1173.13 1195.96 1181.46 1206.22 1181.46H1214.15C1219.5 1181.64 1228.25 1182.53 1232.54 1186.3C1243.45 1195.89 1241.87 1217.31 1241.87 1217.31C1241.93 1217.31 1242 1217.28 1242.07 1217.26V1400.49C1235.24 1403.59 1228.63 1406.61 1222.23 1409.58C1174.3 1427.34 1140.26 1441.01 1082.14 1467.96C1046.49 1485.37 995.12 1515.19 960.44 1550.16C936.79 1574.01 897.75 1615.77 861.3 1749.18C877.06 1718.74 895.42 1696.46 919.82 1681.8C931.64 1674.7 944.27 1669.15 957.56 1665.19C949.33 1683.35 941.6 1702.99 934.6 1724.23C875.76 1902.82 941.57 2051.21 983.44 2119.19C1068.24 2256.87 1183.22 2317.31 1318.16 2366.38C1399.98 2396.13 1577.15 2402.26 1712.37 2333.65C1826.17 2275.91 1884.95 2215.09 1923.61 2180.43C1954.96 2152.32 2027.74 2052.5 2027.74 2052.5C2027.74 2052.5 1804.36 2266.47 1563.65 2266.47C1438.81 2266.47 1359.15 2247.49 1262.99 2199.53C1253.77 2194.93 1231.08 2183.2 1203.7 2164.17C1211.07 2164.44 1218.84 2164.65 1227.07 2164.78C1294.49 2165.88 1377.48 2118.68 1377.48 2118.68C1308.62 2144.9 1161.89 2117.33 1093.82 2039.28C1046.9 1985.48 1043.91 1900.47 1047.2 1849.45C1055.57 1770.51 1088.12 1714.02 1101.79 1693.11C1143.64 1629.12 1191.59 1591.3 1242.08 1558.63V1878.52C1242.01 1878.5 1241.94 1878.47 1241.88 1878.47C1241.88 1878.47 1243.46 1899.9 1232.55 1909.48C1228.26 1913.25 1219.51 1914.14 1214.16 1914.32H1206.23C1195.96 1914.32 1187.64 1922.65 1187.64 1932.91C1187.64 1943.17 1195.97 1951.5 1206.23 1951.5H1396.64C1406.91 1951.5 1415.23 1943.17 1415.23 1932.91C1415.23 1922.65 1406.9 1914.32 1396.64 1914.32H1388.71C1383.36 1914.14 1374.61 1913.25 1370.32 1909.48C1363.49 1903.48 1361.4 1892.86 1360.78 1885.74V1491.84C1434.96 1458.05 1523.57 1430.18 1641.47 1387.77C1642.86 1387.27 1644.22 1386.78 1645.6 1386.29V2003.29C1645.53 2003.27 1645.46 2003.24 1645.4 2003.24C1645.4 2003.24 1646.98 2024.67 1636.07 2034.25C1631.78 2038.02 1623.03 2038.91 1617.68 2039.09H1609.75C1599.48 2039.09 1591.16 2047.42 1591.16 2057.68C1591.16 2067.94 1599.49 2076.27 1609.75 2076.27H1800.16C1810.43 2076.27 1818.75 2067.94 1818.75 2057.68C1818.75 2047.42 1810.42 2039.09 1800.16 2039.09H1792.23C1786.88 2038.91 1778.13 2038.02 1773.84 2034.25C1767.01 2028.25 1764.92 2017.63 1764.3 2010.51V1345.55C1822.52 1325.65 1867.38 1308.41 1931.06 1271.86C2004.81 1229.54 2032.44 1201.96 2044.78 1188.75C2068.29 1163.61 2151.8 1058.31 2139.55 933.6L2139.54 933.63Z" fill="white"/>
</g>
<path d="M2139.54 933.63C2134.22 879.53 2119.35 806.64 2026.73 736.71C1944.83 674.88 1842.59 669.63 1817.51 668.18C1760.07 664.87 1729.3 670.12 1729.3 670.12C1728.73 666.13 1752.09 656.79 1782.76 651.17C1820.68 644.21 1834.36 643.68 1890.65 637.56C1957.78 630.26 1997.57 628.81 1997.57 628.81C1997.4 624.77 1907.22 621.49 1810.95 630.27C1721.55 638.42 1654 654.51 1628.7 660.89C1567.05 676.43 1510.51 702.51 1374.61 761.61C1185.96 843.65 1112.87 888.69 1115.65 886.43C1119.54 883.27 1126.6 875.81 1131.44 868.85C1145.21 849.09 1161.01 819.66 1179.88 796.6C1197.38 775.22 1212.39 754.52 1248.24 721.51C1284.93 687.73 1341.79 661.73 1341.79 661.73C1340.66 660.27 1295.46 675.09 1276.67 685.3C1249.92 699.83 1235.15 709.59 1223.38 718.14C1196.49 737.67 1175.82 757.82 1164.65 769.38C1138.08 796.88 1123.82 813.06 1103.41 843.58C1086.08 869.5 1064.37 887 1055.89 893.62C1055.89 893.62 1076.07 870.9 1093.21 841.07C1111.37 809.46 1147.48 744.76 1171.94 713.5C1198.18 679.97 1242.65 620.92 1349.81 566.24C1375.95 552.91 1426.52 530.6 1438.02 526.87C1442.73 525.34 1282.74 553.84 1146.42 678.5C1121.92 700.9 1103.9 723.46 1061.13 787.85C1039.4 820.56 1028.55 841.62 1003.53 869.71C983.36 892.35 975.38 901.71 919.71 914.7C905.13 918.1 909.04 951 861.39 966.46C825.43 978.12 757.34 999.09 744.02 1035.71C730.41 1073.13 730.32 1145.89 779.16 1125.48C779.16 1125.48 822.52 1108.51 878.77 1101.41C935.67 1094.24 968.4 1103.21 984.18 1108.61C1002.71 1114.96 1012.93 1117.88 1026.35 1132.19C1036.07 1142.56 1038.19 1157.23 1036.07 1161.03C1043.85 1147.1 1047.1 1138.99 1045.79 1130.9C1043.52 1116.92 1034.97 1110.95 1028.62 1105.63C1021.87 1099.98 1006.54 1092.09 1006.54 1092.09C1044.93 1084.8 1090.15 1074.05 1180.69 1044.46C1229.29 1028.57 1265.74 1009.95 1313.37 989.06C1397.02 952.36 1428.86 950.58 1462.08 954.07C1508.2 958.91 1534.2 976.02 1534.2 976.02C1535.87 972.42 1509.87 951.84 1487.94 942.61C1470 935.06 1438.36 925.51 1365.37 945.81C1294.83 965.42 1252.13 968.65 1252.13 968.65C1250.78 965.45 1337.42 914.17 1464.33 861.73C1622.88 796.22 1654.67 791.03 1681.18 785.8C1751.87 771.84 1826.48 771.21 1900.85 805.24C1988.43 845.32 2005.95 908.1 2003.94 972.52C2003.23 995.33 2003.4 1032.61 1953.4 1091.1C1910.96 1140.74 1853.21 1174.31 1764.29 1210V992.61C1764.9 985.49 1767 974.86 1773.83 968.87C1778.12 965.1 1786.87 964.21 1792.22 964.03H1800.15C1810.42 964.03 1818.74 955.7 1818.74 945.44C1818.74 935.18 1810.41 926.85 1800.15 926.85H1609.74C1599.47 926.85 1591.15 935.18 1591.15 945.44C1591.15 955.7 1599.48 964.03 1609.74 964.03H1617.67C1623.02 964.21 1631.78 965.1 1636.06 968.87C1646.97 978.46 1645.39 999.88 1645.39 999.88C1645.45 999.88 1645.52 999.85 1645.59 999.83V1253.63C1635.72 1257.06 1625.58 1260.55 1615.15 1264.12C1483.78 1309.11 1420.31 1327.38 1360.77 1349.56V1210.04C1361.38 1202.92 1363.48 1192.29 1370.31 1186.3C1374.6 1182.53 1383.35 1181.64 1388.7 1181.46H1396.63C1406.9 1181.46 1415.22 1173.13 1415.22 1162.87C1415.22 1152.61 1406.89 1144.28 1396.63 1144.28H1206.22C1195.95 1144.28 1187.63 1152.61 1187.63 1162.87C1187.63 1173.13 1195.96 1181.46 1206.22 1181.46H1214.15C1219.5 1181.64 1228.25 1182.53 1232.54 1186.3C1243.45 1195.89 1241.87 1217.31 1241.87 1217.31C1241.93 1217.31 1242 1217.28 1242.07 1217.26V1400.49C1235.24 1403.59 1228.63 1406.61 1222.23 1409.58C1174.3 1427.34 1140.26 1441.01 1082.14 1467.96C1046.49 1485.37 995.12 1515.19 960.44 1550.16C936.79 1574.01 897.75 1615.77 861.3 1749.18C877.06 1718.74 895.42 1696.46 919.82 1681.8C931.64 1674.7 944.27 1669.15 957.56 1665.19C949.33 1683.35 941.6 1702.99 934.6 1724.23C875.76 1902.82 941.57 2051.21 983.44 2119.19C1068.24 2256.87 1183.22 2317.31 1318.16 2366.38C1399.98 2396.13 1577.15 2402.26 1712.37 2333.65C1826.17 2275.91 1884.95 2215.09 1923.61 2180.43C1954.96 2152.32 2027.74 2052.5 2027.74 2052.5C2027.74 2052.5 1804.36 2266.47 1563.65 2266.47C1438.81 2266.47 1359.15 2247.49 1262.99 2199.53C1253.77 2194.93 1231.08 2183.2 1203.7 2164.17C1211.07 2164.44 1218.84 2164.65 1227.07 2164.78C1294.49 2165.88 1377.48 2118.68 1377.48 2118.68C1308.62 2144.9 1161.89 2117.33 1093.82 2039.28C1046.9 1985.48 1043.91 1900.47 1047.2 1849.45C1055.57 1770.51 1088.12 1714.02 1101.79 1693.11C1143.64 1629.12 1191.59 1591.3 1242.08 1558.63V1878.52C1242.01 1878.5 1241.94 1878.47 1241.88 1878.47C1241.88 1878.47 1243.46 1899.9 1232.55 1909.48C1228.26 1913.25 1219.51 1914.14 1214.16 1914.32H1206.23C1195.96 1914.32 1187.64 1922.65 1187.64 1932.91C1187.64 1943.17 1195.97 1951.5 1206.23 1951.5H1396.64C1406.91 1951.5 1415.23 1943.17 1415.23 1932.91C1415.23 1922.65 1406.9 1914.32 1396.64 1914.32H1388.71C1383.36 1914.14 1374.61 1913.25 1370.32 1909.48C1363.49 1903.48 1361.4 1892.86 1360.78 1885.74V1491.84C1434.96 1458.05 1523.57 1430.18 1641.47 1387.77C1642.86 1387.27 1644.22 1386.78 1645.6 1386.29V2003.29C1645.53 2003.27 1645.46 2003.24 1645.4 2003.24C1645.4 2003.24 1646.98 2024.67 1636.07 2034.25C1631.78 2038.02 1623.03 2038.91 1617.68 2039.09H1609.75C1599.48 2039.09 1591.16 2047.42 1591.16 2057.68C1591.16 2067.94 1599.49 2076.27 1609.75 2076.27H1800.16C1810.43 2076.27 1818.75 2067.94 1818.75 2057.68C1818.75 2047.42 1810.42 2039.09 1800.16 2039.09H1792.23C1786.88 2038.91 1778.13 2038.02 1773.84 2034.25C1767.01 2028.25 1764.92 2017.63 1764.3 2010.51V1345.55C1822.52 1325.65 1867.38 1308.41 1931.06 1271.86C2004.81 1229.54 2032.44 1201.96 2044.78 1188.75C2068.29 1163.61 2151.8 1058.31 2139.55 933.6L2139.54 933.63Z" fill="#F8F8F8"/>
<g style="mix-blend-mode:plus-lighter" opacity="0.5">
<g style="mix-blend-mode:hard-light" opacity="0.5">
<rect x="540.328" y="465" width="2593.5" height="429.089" transform="rotate(35.0346 540.328 465)" fill="#00FFFF" fill-opacity="0.5"/>
</g>
<g style="mix-blend-mode:hard-light" opacity="0.5">
<rect x="317.535" y="894.773" width="2593.5" height="35" transform="rotate(35.0346 317.535 894.773)" fill="#00FFFF" fill-opacity="0.5"/>
</g>
</g>
</g>
<defs>
<filter id="filter0_d_36_236" x="676.215" y="466.812" width="1484.55" height="1940.78" filterUnits="userSpaceOnUse" color-interpolation-filters="sRGB">
<feFlood flood-opacity="0" result="BackgroundImageFix"/>
<feColorMatrix in="SourceAlpha" type="matrix" values="0 0 0 0 0 0 0 0 0 0 0 0 0 0 0 0 0 0 127 0" result="hardAlpha"/>
<feOffset dx="-20" dy="-20"/>
<feGaussianBlur stdDeviation="20"/>
<feComposite in2="hardAlpha" operator="out"/>
<feColorMatrix type="matrix" values="0 0 0 0 1 0 0 0 0 1 0 0 0 0 1 0 0 0 0.3 0"/>
<feBlend mode="normal" in2="BackgroundImageFix" result="effect1_dropShadow_36_236"/>
<feBlend mode="normal" in="SourceGraphic" in2="effect1_dropShadow_36_236" result="shape"/>
</filter>
</defs>
</svg>
